<svg height="512" viewBox="0 0 60 58" width="512" xmlns="http://www.w3.org/2000/svg"><g id="Page-1" fill="none" fill-rule="evenodd"><g id="006---Flower" fill="rgb(0,0,0)" fill-rule="nonzero"><path id="Shape" d="m30 27.48c-1.6568542 0-3 1.3431458-3 3s1.3431458 3 3 3 3-1.3431458 3-3-1.3431458-3-3-3zm0 4c-.5522847 0-1-.4477153-1-1s.4477153-1 1-1 1 .4477153 1 1-.4477153 1-1 1z"/><path id="Shape" d="m6.313 42.3c-1.47602544 3.08578-2.29110355 6.445891-2.393 9.865-.0022352.4819219.33957316.8968848.813.987 1.3669585.2319561 2.75152643.3443812 4.138.336 3.243 0 7.757-.6 11.162-3.4.15-.122.286-.256.429-.385.4263089.071444.8577474.1078989 1.29.109.4249654-.0000668.8492695-.0335029 1.269-.1 2.0973936-.3263742 3.976861-1.4787589 5.219-3.2.7313136-1.0735001 1.3227503-2.235875 1.76-3.459.4378418 1.2214871 1.0296116 2.3821758 1.761 3.454 1.1589348 1.6032458 2.8758466 2.7147972 4.813 3.116 3.832 5.981 12.076 7.762 12.433 7.836.0658061.0136098.1328022.0206444.2.021.4057683-.000161.7712138-.2455034.925-.621 1.371146-3.560403 1.8690509-7.3975628 1.452-11.19 1.6394141-.2170367 3.2479375-.6244532 4.793-1.214.4476336-.1829213.7002467-.6599391.6-1.133-.069-.319-1.722-7.841-7.308-10.794-.3251699-.1627935-.659002-.3076767-1-.434.6579588-.5952924 1.2119079-1.2962628 1.639-2.074 5.554-1.267 9.352-6.686 9.515-6.923.2729862-.3968871.2242257-.9319909-.116-1.273-1.7588248-1.6736931-3.7964351-3.0273621-6.021-4 1.4755603-3.0838665 2.2909594-6.441853 2.394-9.859.0022352-.48192191-.3395732-.89688482-.813-.987-.382-.073-9.469-1.733-15.3 3.068-1.0548043.8875829-1.9656218 1.9333363-2.7 3.1-.9928104-2.1779798-2.9118103-3.79451994-5.226775-4.40296624-2.3149647-.60844631-4.7808131-.14438366-6.716225 1.26396624-.114-.255-.226-.511-.356-.755-3.554-6.678-12.581-8.631-12.968-8.711-.4717371-.09811229-.946362.15412414-1.129.6-1.36974489 3.56039588-1.86627795 7.39721105-1.448 11.189-1.64041154.2162953-3.24975925.6244219-4.795 1.216-.44675357.1827805-.69917801.6586006-.6 1.131.052.241 1.247 5.686 5.009 9.148-.61259923 1.9779511-.4270406 4.1170796.517 5.96.054.106.118.2.176.308-5.571 1.249-9.382 6.691-9.554 6.94-.27298616.3968871-.22422572.9319909.116 1.273 1.75929677 1.6715545 3.79687851 3.023174 6.021 3.994zm-.348 9.007c.20764968-3.1620047 1.10716912-6.2398291 2.635-9.016.66874512-1.1455436 1.5300327-2.1671808 2.546-3.02 1.2246601-.9836679 2.6325962-1.7141495 4.142-2.149-2.5821382 3.5750218-1.7841768 8.5654112 1.784 11.157.3559438.2573764.7321774.4854575 1.125.682-4.137 2.947-10.043 2.607-12.232 2.348zm20.655-5.974c-1.983182 2.5741353-5.6551659 3.1016911-8.2828292 1.1899984-2.6276633-1.9116928-3.2559303-5.5677919-1.4171708-8.2469984 1.3558184-1.6577279 3.0137926-3.0432188 4.886-4.083.0316473-.0136681.062378-.0293675.092-.047.5497657-.3150543 1.1173909-.5978652 1.7-.847.3635103.821743.8811865 1.5661783 1.525 2.193l-2.985 4.108c-.2205533.2883484-.2675147.6735778-.1226933 1.0064672s.4586767.5611478.8199922.5963579c.3613154.0352101.7133347-.1281589.9197011-.4268251l2.984-4.107c.6152519.3254077 1.2759906.5563291 1.96.685.0540557.7141101.1485405 1.4245827.283 2.128-.420131 2.0791987-1.2209127 4.0628454-2.362 5.851zm3.38-9.853c-2.7614237 0-5-2.2385763-5-5s2.2385763-5 5-5 5 2.2385763 5 5c-.0033061 2.7600532-2.2399468 4.9966939-5 5zm7.292 12.252c-1.5722378-.2445831-2.9808936-1.1090101-3.911-2.4-1.1704077-1.8351587-1.9846067-3.8743881-2.4-6.011-.1238076-.6207505-.2146019-1.2476311-.272-1.878.8931101-.0908064 1.7601246-.3540012 2.553-.775l2.984 4.107c.2028949.3068797.557904.4775744.9242947.4444173s.6849885-.2648109.8294952-.6031293.0915835-.7286608-.1377899-1.016288l-2.985-4.108c.4985481-.4846979.9227905-1.0403577 1.259-1.649.6941396.1740355 1.3985268.304292 2.109.39 1.8510143 1.0328569 3.491204 2.4047136 4.835 4.044 1.4268948 1.9625934 1.531226 4.5914254.2643539 6.660927-1.266872 2.0695016-3.6555218 3.1722233-6.0523539 2.794073zm11.283 7.555c-1.893-.532-6.556-2.129-9.449-5.548 2.4813599-.2729183 4.6915589-1.6925408 5.9716875-3.8356465 1.2801286-2.1431058 1.4823259-4.762156.5463125-7.0763535 1.1216347.9409538 2.0588457 2.0819506 2.764 3.365.469861.8863181.8151198 1.8332561 1.026 2.814.913 4.124-.275 8.508-.859 10.281zm.157-20.993c3.754 1.984 5.492 6.679 6.065 8.6-1.1930238.3821612-2.4184411.6546249-3.661.814-.2345682-.8512611-.5573155-1.6757247-.963-2.46-1.806-3.4-5.067-5.576-7.824-6.9 1.1662497-.0580481 2.3212489-.2564796 3.44-.591.237-.077.468-.166.694-.263.7826204.1629322 1.5392927.4320909 2.249.8zm8.914-11.642c-1.7149871 2.1813841-3.9399441 3.9077089-6.479 5.027.2610572-1.3324549.1763642-2.7095755-.246-4-.1606493-.4977214-.369297-.9786493-.623-1.436.9034782-.7824275 1.697599-1.6828347 2.361-2.677 1.8129637.762557 3.4956028 1.8037891 4.987 3.086zm-19.672-6.691c.7454644-1.682537 1.8599951-3.1757552 3.261-4.369 4.146-3.412 10.512-3.041 12.8-2.771-.2058083 3.1629626-1.1054333 6.2418309-2.635 9.018-.6154357 1.0479299-1.3915479 1.9927621-2.3 2.8-2.1187201-2.233412-5.3351191-3.0452996-8.26-2.085-1.2159897.4361012-2.3718527 1.0244489-3.44 1.751.3642257-1.2437653.5659018-2.52945.6-3.825 0-.175-.015-.347-.026-.519zm3.487 4.49c2.0553185-.7268053 4.3431428-.2816065 5.9759378 1.1628867s2.3536155 3.6609678 1.8828276 5.789568c-.4707879 2.1286003-2.0590987 3.8343584-4.1487654 4.4555453-2.0709526.5399755-4.2245219.6885209-6.35.438-.0418609-.0098389-.0842688-.0171852-.127-.022-.6239251-.0679608-1.2430897-.1741605-1.854-.318.19456-.8760424.2119003-1.7821551.051-2.665l4.831-1.569c.5006383-.1881093.7646547-.736829.5992307-1.245414s-.7017264-.7969905-1.2172307-.654586l-4.832 1.57c-.3067708-.6218516-.7040955-1.1947541-1.179-1.7.3780536-.612328.7190005-1.2468029 1.021-1.9 1.5578011-1.4383863 3.3714624-2.5719671 5.347-3.342zm-11.461-9.971c3.3123376.0033074 5.9966926 2.6876624 6 6-.1306095 2.1796323-.67746 4.3140804-1.611 6.288-.0123729.0267606-.0233869.0541288-.033.082-.2485165.5451312-.5272839 1.0759578-.835 1.59-.7753419-.4539836-1.6315661-.752864-2.521-.88v-5.08c0-.5522847-.4477153-1-1-1s-1 .4477153-1 1v5.08c-.6893792.0989346-1.3599101.3012063-1.989.6-.4560828-.5446492-.9453462-1.0606301-1.465-1.545-.8959674-1.9297898-1.420443-4.0110693-1.546-6.135.0033074-3.3123376 2.6876624-5.9966926 6-6zm-5.968 13.454c.4600741.4199238.8942074.8674151 1.3 1.34-.6659594.5970353-1.2120343 1.3155193-1.609 2.117l-4.823-1.57c-.3444788-.1294341-.7322116-.0592137-1.0094173.1828107-.2772058.2420245-.3990873.616741-.3173044.9755312s.3540138.6436725.7087217.7416581l4.831 1.569c-.0718065.3926806-.1096133.7908224-.113 1.19.0020534.2943149.0224261.5882166.061.88-.6682608.2732209-1.3191477.5871428-1.949.94-2.1039324.242077-4.2345003.0925575-6.284-.441-2.0853544-.6250606-3.6685279-2.33065-4.1368295-4.4567021s.2517498-4.3389685 1.881493-5.7823469c1.6297432-1.4433783 3.9134556-1.8907384 5.9673365-1.168951 1.9995739.7803685 3.8334812 1.9319469 5.405 3.394.0272008.0313736.0562526.0610933.087.089zm-11.6-21.22c2.217.627 8.233 2.718 10.762 7.475.2178899.4197439.4063439.8541238.564 1.3-1.1411697 1.4164345-1.7626698 3.1810574-1.761 5 .0362266 1.2957224.2395738 2.5813471.605 3.825-1.0694498-.7286693-2.2270253-1.3187135-3.445-1.756-1.4887769-.4901622-3.089314-.5287839-4.6-.111-.7775855-.7727215-1.437914-1.6550686-1.96-2.619-.4699778-.8901398-.8152167-1.8407244-1.026-2.825-.908-4.132.279-8.514.864-10.289zm-6.22 12.386c1.19260992-.383688 2.41816906-.6561832 3.661-.814.2349462.8532372.5573205 1.6799498.962 2.467.4876692.9084523 1.0829539 1.7548779 1.773 2.521-1.0934799.6446945-2.0155049 1.5433945-2.688 2.62-1.73040592-1.9575544-2.99775749-4.2796652-3.708-6.794zm4.9 16.782c.8748292.8558066 1.9358429 1.4975488 3.1 1.875 1.2399425.3642701 2.5212788.5689209 3.813.609-.08.064-.161.127-.239.192-2.883163.2874095-5.6259879 1.3854409-7.911 3.167-.97675958.8180647-1.83023772 1.7729229-2.534 2.835-1.81270432-.7613307-3.49532871-1.8012041-4.987-3.082 1.251-1.537 4.594-5.135 8.756-5.592z"/></g></g></svg>