<?xml version="1.0"?><svg width="793.70076" height="793.7067066666666" xmlns="http://www.w3.org/2000/svg" xmlns:xlink="http://www.w3.org/1999/xlink">
 <title>Sun Flower Template</title>
 <defs>
  <linearGradient id="linearGradient4827">
   <stop stop-color="#d2772f" offset="0" id="stop4829"/>
   <stop stop-color="#ffd600" offset="1" id="stop4831"/>
  </linearGradient>
  <linearGradient id="linearGradient3940">
   <stop stop-color="#954e30" offset="0" id="stop3942"/>
   <stop stop-color="#954e30" offset="0.704545" id="stop3950"/>
   <stop stop-color="#612900" offset="1" id="stop3944"/>
  </linearGradient>
  <linearGradient id="linearGradient3930">
   <stop stop-color="#432700" offset="0" id="stop3932"/>
   <stop stop-color="#653014" offset="0.659091" id="stop3938"/>
   <stop stop-color="#653014" stop-opacity="0" offset="1" id="stop3934"/>
  </linearGradient>
  <radialGradient xlink:href="#linearGradient4827" r="68.086655" id="radialGradient4833" gradientUnits="userSpaceOnUse" gradientTransform="matrix(0.622332,-6.074965e-9,3.433949e-8,3.51781,128.8052,-541.0193)" fy="236.62375" fx="341.05426" cy="236.62375" cx="341.05426"/>
  <radialGradient xlink:href="#linearGradient4827" r="68.086655" id="radialGradient5717" gradientUnits="userSpaceOnUse" gradientTransform="matrix(0.541432,0.370775,-2.26649,3.309691,742.3057,-638.4459)" fy="246.37006" fx="401.0542" cy="246.37006" cx="401.0542"/>
  <radialGradient xlink:href="#linearGradient4827" r="68.086655" id="radialGradient5721" gradientUnits="userSpaceOnUse" gradientTransform="matrix(0.266318,0.542206,-3.152831,1.548592,1144.937,-268.5904)" fy="260.17737" fx="442.48282" cy="260.17737" cx="442.48282"/>
  <radialGradient xlink:href="#linearGradient4827" r="68.086655" id="radialGradient5725" gradientUnits="userSpaceOnUse" gradientTransform="matrix(-0.158869,0.585041,-3.190522,-0.866393,1385.207,380.2758)" fy="270.32983" fx="451.05423" cy="270.32983" cx="451.05423"/>
  <radialGradient xlink:href="#linearGradient4827" r="68.086655" id="radialGradient5729" gradientUnits="userSpaceOnUse" gradientTransform="matrix(-0.483134,0.483098,-2.290925,-2.291096,1280.585,907.0736)" fy="284.54327" fx="423.91135" cy="284.54327" cx="423.91135"/>
  <radialGradient xlink:href="#linearGradient4827" r="68.086655" id="radialGradient5733" gradientUnits="userSpaceOnUse" gradientTransform="matrix(-0.611444,6.320834e-2,-0.351918,-3.404271,705.9601,1469.63)" fy="293.88351" fx="373.91119" cy="293.88351" cx="373.91119"/>
  <radialGradient xlink:href="#linearGradient4827" r="68.086655" id="radialGradient5737" gradientUnits="userSpaceOnUse" gradientTransform="matrix(-0.590738,-0.265499,1.418597,-3.156393,97.939,1453.022)" fy="286.16763" fx="316.76822" cy="286.16763" cx="316.76822"/>
  <radialGradient xlink:href="#linearGradient4827" r="68.086655" id="radialGradient5741" gradientUnits="userSpaceOnUse" gradientTransform="matrix(-0.362184,-0.51657,2.415903,-1.693869,-355.1768,1067.925)" fy="284.54327" fx="243.91087" cy="284.54327" cx="243.91087"/>
  <radialGradient xlink:href="#linearGradient4827" r="68.086655" id="radialGradient5745" gradientUnits="userSpaceOnUse" gradientTransform="matrix(8.9387e-2,-0.652619,3.365294,0.460929,-655.4232,434.2972)" fy="264.23837" fx="256.76807" cy="264.23837" cx="256.76807"/>
  <radialGradient xlink:href="#linearGradient4827" r="68.086655" id="radialGradient5749" gradientUnits="userSpaceOnUse" gradientTransform="matrix(0.405268,-0.479551,3.002039,2.537018,-569.7682,-167.6782)" fy="250.85623" fx="283.47913" cy="250.85623" cx="283.47913"/>
  <radialGradient xlink:href="#linearGradient3940" r="120.71429" id="radialGradient5829" gradientUnits="userSpaceOnUse" fy="407.36218" fx="339.28571" cy="407.36218" cx="339.28571"/>
  <radialGradient xlink:href="#linearGradient3930" r="48.57143" id="radialGradient5831" gradientUnits="userSpaceOnUse" fy="412.36218" fx="345.71429" cy="412.36218" cx="345.71429"/>
  <radialGradient xlink:href="#linearGradient4827" r="68.086655" id="radialGradient7313" gradientUnits="userSpaceOnUse" gradientTransform="matrix(0.504264,-0.374071,2.582404,3.48119,-497.7685,-442.5395)" fy="252.69768" fx="343.86374" cy="252.69768" cx="343.86374"/>
  <radialGradient xlink:href="#linearGradient4827" r="68.086655" id="radialGradient7316" gradientUnits="userSpaceOnUse" gradientTransform="matrix(0.231844,-0.616563,4.015724,1.510011,-873.2348,145.0818)" fy="264.66672" fx="320.55112" cy="264.66672" cx="320.55112"/>
  <radialGradient xlink:href="#linearGradient4827" r="68.086655" id="radialGradient7319" gradientUnits="userSpaceOnUse" gradientTransform="matrix(-0.229333,-0.587731,3.695782,-1.442089,-759.6521,1018.079)" fy="284.31531" fx="305.49936" cy="284.31531" cx="305.49936"/>
  <radialGradient xlink:href="#linearGradient4827" r="68.086655" id="radialGradient7325" gradientUnits="userSpaceOnUse" gradientTransform="matrix(-0.610555,-7.127632e-2,0.487349,-4.174563,466.0984,1747.742)" fy="285.34048" fx="433.62366" cy="285.34048" cx="433.62366"/>
  <radialGradient xlink:href="#linearGradient4827" r="68.086655" id="radialGradient7328" gradientUnits="userSpaceOnUse" gradientTransform="matrix(-0.612815,0.302091,-1.892273,-3.838609,1231.108,1419.621)" fy="276.43671" fx="468.26489" cy="276.43671" cx="468.26489"/>
  <radialGradient xlink:href="#linearGradient4827" r="68.086655" id="radialGradient7331" gradientUnits="userSpaceOnUse" gradientTransform="matrix(-0.2607,0.547309,-3.757025,-1.789584,1587.474,644.295)" fy="265.07413" fx="511.64233" cy="265.07413" cx="511.64233"/>
  <radialGradient xlink:href="#linearGradient4827" r="68.086655" id="radialGradient7334" gradientUnits="userSpaceOnUse" gradientTransform="matrix(5.71923e-2,0.601365,-4.369766,0.415581,1558.215,-4.437759)" fy="257.9527" fx="475.15149" cy="257.9527" cx="475.15149"/>
  <radialGradient xlink:href="#linearGradient4827" r="68.086655" id="radialGradient7337" gradientUnits="userSpaceOnUse" gradientTransform="matrix(0.436065,0.490377,-3.273607,2.911038,1037.486,-595.3426)" fy="245.26802" fx="457.12668" cy="245.26802" cx="457.12668"/>
  <radialGradient xlink:href="#linearGradient4827" r="68.086655" id="radialGradient7340" gradientUnits="userSpaceOnUse" gradientTransform="matrix(0.606134,0.141061,-0.965156,4.147257,364.6821,-748.9441)" fy="237.43594" fx="414.51071" cy="237.43594" cx="414.51071"/>
  <radialGradient xlink:href="#linearGradient4827" r="113.70563" id="radialGradient8215" gradientUnits="userSpaceOnUse" gradientTransform="matrix(-1.266837,1.414927,-0.166598,-0.149162,688.6742,219.4983)" fy="527.492" fx="265.03674" cy="527.492" cx="265.03674"/>
  <radialGradient xlink:href="#linearGradient4827" r="68.086655" id="radialGradient8263" gradientUnits="userSpaceOnUse" gradientTransform="matrix(0.606134,0.141061,-0.965156,4.147257,364.6821,-748.9441)" fy="237.43594" fx="414.51071" cy="237.43594" cx="414.51071"/>
  <radialGradient xlink:href="#linearGradient4827" r="68.086655" id="radialGradient8265" gradientUnits="userSpaceOnUse" gradientTransform="matrix(0.436065,0.490377,-3.273607,2.911038,1037.486,-595.3426)" fy="245.26802" fx="457.12668" cy="245.26802" cx="457.12668"/>
  <radialGradient xlink:href="#linearGradient4827" r="68.086655" id="radialGradient8267" gradientUnits="userSpaceOnUse" gradientTransform="matrix(5.71923e-2,0.601365,-4.369766,0.415581,1558.215,-4.437759)" fy="257.9527" fx="475.15149" cy="257.9527" cx="475.15149"/>
  <radialGradient xlink:href="#linearGradient4827" r="68.086655" id="radialGradient8269" gradientUnits="userSpaceOnUse" gradientTransform="matrix(-0.2607,0.547309,-3.757025,-1.789584,1587.474,644.295)" fy="265.07413" fx="511.64233" cy="265.07413" cx="511.64233"/>
  <radialGradient xlink:href="#linearGradient4827" r="68.086655" id="radialGradient8271" gradientUnits="userSpaceOnUse" gradientTransform="matrix(-0.612815,0.302091,-1.892273,-3.838609,1231.108,1419.621)" fy="276.43671" fx="468.26489" cy="276.43671" cx="468.26489"/>
  <radialGradient xlink:href="#linearGradient4827" r="68.086655" id="radialGradient8273" gradientUnits="userSpaceOnUse" gradientTransform="matrix(-0.610555,-7.127632e-2,0.487349,-4.174563,466.0984,1747.742)" fy="285.34048" fx="433.62366" cy="285.34048" cx="433.62366"/>
  <radialGradient xlink:href="#linearGradient4827" r="113.70563" id="radialGradient8275" gradientUnits="userSpaceOnUse" gradientTransform="matrix(-1.266837,1.414927,-0.166598,-0.149162,688.6742,219.4983)" fy="527.492" fx="265.03674" cy="527.492" cx="265.03674"/>
  <radialGradient xlink:href="#linearGradient4827" r="68.086655" id="radialGradient8277" gradientUnits="userSpaceOnUse" gradientTransform="matrix(-0.229333,-0.587731,3.695782,-1.442089,-759.6521,1018.079)" fy="284.31531" fx="305.49936" cy="284.31531" cx="305.49936"/>
  <radialGradient xlink:href="#linearGradient4827" r="68.086655" id="radialGradient8279" gradientUnits="userSpaceOnUse" gradientTransform="matrix(0.231844,-0.616563,4.015724,1.510011,-873.2348,145.0818)" fy="264.66672" fx="320.55112" cy="264.66672" cx="320.55112"/>
  <radialGradient xlink:href="#linearGradient4827" r="68.086655" id="radialGradient8281" gradientUnits="userSpaceOnUse" gradientTransform="matrix(0.504264,-0.374071,2.582404,3.48119,-497.7685,-442.5395)" fy="252.69768" fx="343.86374" cy="252.69768" cx="343.86374"/>
  <radialGradient xlink:href="#linearGradient4827" r="68.086655" id="radialGradient8283" gradientUnits="userSpaceOnUse" gradientTransform="matrix(0.622332,-6.074965e-9,3.433949e-8,3.51781,128.8052,-541.0193)" fy="236.62375" fx="341.05426" cy="236.62375" cx="341.05426"/>
  <radialGradient xlink:href="#linearGradient4827" r="68.086655" id="radialGradient8285" gradientUnits="userSpaceOnUse" gradientTransform="matrix(0.541432,0.370775,-2.26649,3.309691,742.3057,-638.4459)" fy="246.37006" fx="401.0542" cy="246.37006" cx="401.0542"/>
  <radialGradient xlink:href="#linearGradient4827" r="68.086655" id="radialGradient8287" gradientUnits="userSpaceOnUse" gradientTransform="matrix(0.266318,0.542206,-3.152831,1.548592,1144.937,-268.5904)" fy="260.17737" fx="442.48282" cy="260.17737" cx="442.48282"/>
  <radialGradient xlink:href="#linearGradient4827" r="68.086655" id="radialGradient8289" gradientUnits="userSpaceOnUse" gradientTransform="matrix(-0.158869,0.585041,-3.190522,-0.866393,1385.207,380.2758)" fy="270.32983" fx="451.05423" cy="270.32983" cx="451.05423"/>
  <radialGradient xlink:href="#linearGradient4827" r="68.086655" id="radialGradient8291" gradientUnits="userSpaceOnUse" gradientTransform="matrix(-0.483134,0.483098,-2.290925,-2.291096,1280.585,907.0736)" fy="284.54327" fx="423.91135" cy="284.54327" cx="423.91135"/>
  <radialGradient xlink:href="#linearGradient4827" r="68.086655" id="radialGradient8293" gradientUnits="userSpaceOnUse" gradientTransform="matrix(-0.611444,6.320834e-2,-0.351918,-3.404271,705.9601,1469.63)" fy="293.88351" fx="373.91119" cy="293.88351" cx="373.91119"/>
  <radialGradient xlink:href="#linearGradient4827" r="68.086655" id="radialGradient8295" gradientUnits="userSpaceOnUse" gradientTransform="matrix(-0.590738,-0.265499,1.418597,-3.156393,97.939,1453.022)" fy="286.16763" fx="316.76822" cy="286.16763" cx="316.76822"/>
  <radialGradient xlink:href="#linearGradient4827" r="68.086655" id="radialGradient8297" gradientUnits="userSpaceOnUse" gradientTransform="matrix(-0.362184,-0.51657,2.415903,-1.693869,-355.1768,1067.925)" fy="284.54327" fx="243.91087" cy="284.54327" cx="243.91087"/>
  <radialGradient xlink:href="#linearGradient4827" r="68.086655" id="radialGradient8299" gradientUnits="userSpaceOnUse" gradientTransform="matrix(8.9387e-2,-0.652619,3.365294,0.460929,-655.4232,434.2972)" fy="264.23837" fx="256.76807" cy="264.23837" cx="256.76807"/>
  <radialGradient xlink:href="#linearGradient4827" r="68.086655" id="radialGradient8301" gradientUnits="userSpaceOnUse" gradientTransform="matrix(0.405268,-0.479551,3.002039,2.537018,-569.7682,-167.6782)" fy="250.85623" fx="283.47913" cy="250.85623" cx="283.47913"/>
  <radialGradient xlink:href="#linearGradient3940" r="120.71429" id="radialGradient8303" gradientUnits="userSpaceOnUse" fy="407.36218" fx="339.28571" cy="407.36218" cx="339.28571"/>
  <radialGradient xlink:href="#linearGradient3930" r="48.57143" id="radialGradient8305" gradientUnits="userSpaceOnUse" fy="412.36218" fx="345.71429" cy="412.36218" cx="345.71429"/>
 </defs>
 <g>
  <title>Layer 1</title>
  <g display="inline" id="layer1"/>
  <g id="layer2" transform="translate(114 66)" display="inline">
   <g id="svg_27" transform="matrix(0.849029 0 0 0.849029 65.2874 25.9633)">
    <path id="svg_28" fill="#ffffff" fill-rule="evenodd" stroke="#000000" stroke-width="8" stroke-miterlimit="4" d="m335.662872,237.986206c29.202484,-24.342041 60.58606,-230.559322 9.385345,-295.979031c-73.760437,41.40971 -167.217957,217.611736 -116.882584,287.760891c50.335403,70.149139 107.90538,6.715332 107.497238,8.21814z"/>
    <path id="svg_29" fill="#ffffff" fill-rule="evenodd" stroke="#000000" stroke-width="8" stroke-miterlimit="4" d="m386.044678,310.854431c37.9216,-2.697144 183.860779,-151.734833 180.521729,-234.741455c-84.056488,-9.480042 -262.842316,78.93425 -262.968384,165.273926c-0.126099,86.339691 83.655823,68.486267 82.446655,69.467529z"/>
    <path id="svg_30" fill="#ffffff" fill-rule="evenodd" stroke="#000000" stroke-width="8" stroke-miterlimit="4" d="m389.714386,408.724213c33.877747,17.251678 235.782501,-35.140503 275.741852,-107.972504c-67.11853,-51.482727 -265.888855,-67.969208 -310.536072,5.930603c-44.647278,73.899811 36.336273,101.825043 34.79422,102.041901z"/>
    <path id="svg_31" fill="#ffffff" fill-rule="evenodd" stroke="#000000" stroke-width="8" stroke-miterlimit="4" d="m329.107666,470.122833c19.955872,32.358643 219.640503,92.662323 291.658508,51.253998c-30.533752,-78.886414 -191.705597,-196.3815 -268.282593,-156.500183c-76.577026,39.881256 -21.946136,105.863251 -23.375916,105.246185z"/>
    <path id="svg_32" fill="#ffffff" fill-rule="evenodd" stroke="#000000" stroke-width="8" stroke-miterlimit="4" d="m262.062073,475.924225c-6.152496,37.516205 105.063141,213.985992 186.588898,229.948456c28.676453,-79.580444 -15.959839,-273.974518 -99.926239,-294.079315c-83.96637,-20.104828 -85.987854,65.534363 -86.662659,64.130859z"/>
    <path id="svg_33" fill="#ffffff" fill-rule="evenodd" stroke="#000000" stroke-width="8" stroke-miterlimit="4" d="m184.72879,458.800507c-26.9543,26.810242 -40.124664,234.985687 16.618103,295.661163c69.843018,-47.721313 147.481354,-231.443237 91.185608,-296.905792c-56.295715,-65.462585 -108.07843,2.777466 -107.803711,1.244629z"/>
    <path id="svg_34" fill="#ffffff" fill-rule="evenodd" stroke="#000000" stroke-width="8" stroke-miterlimit="4" d="m112.00724,385.084015c-36.075912,11.993652 -140.613815,192.499359 -116.845932,272.100494c83.789322,-11.606873 235.148872,-141.498169 213.913979,-225.185822c-21.234863,-83.687744 -97.99691,-45.664795 -97.068047,-46.914673z"/>
    <path id="svg_35" fill="#ffffff" fill-rule="evenodd" stroke="#000000" stroke-width="8" stroke-miterlimit="4" d="m86.959099,304.477875c-37.260666,-7.547424 -217.755577,97.009186 -236.747414,177.882935c78.45546,31.62442 274.379066,-5.730591 297.601486,-88.888702c23.222473,-83.158112 -62.281731,-88.372253 -60.854073,-88.994232z"/>
    <path id="svg_36" fill="#ffffff" fill-rule="evenodd" stroke="#000000" stroke-width="8" stroke-miterlimit="4" d="m153.065643,223.719513c-23.262451,-32.12149 -224.293907,-83.6772 -289.189682,-37.585815c39.131607,79.234161 209.680809,191.333527 279.184448,146.57312c69.503647,-44.760376 8.543472,-109.546234 10.005234,-108.987305z"/>
    <path id="svg_37" fill="#ffffff" fill-rule="evenodd" stroke="#000000" stroke-width="8" stroke-miterlimit="4" d="m254.876236,181.401382c-2.983047,-39.547852 -147.19648,-188.793056 -226.621056,-183.538116c-8.185791,87.990494 78.34198,272.831589 160.993904,271.12468c82.651855,-1.706879 64.675018,-88.828537 65.627151,-87.586563z"/>
    <g id="svg_38" stroke="#000000" stroke-width="8" stroke-miterlimit="4" display="inline">
     <path id="svg_39" fill="#ffffff" fill-rule="evenodd" stroke="#000000" stroke-width="8" stroke-miterlimit="4" d="m297.780762,228.182648c20,-28.571426 -1.799683,-218.680733 -62.857147,-264.285713c-55.34317,54.395012 -95.714279,232.85714 -34.285706,282.857155c61.428589,50 97.142853,-20 97.142853,-18.571442z"/>
     <path id="svg_40" fill="#ffffff" fill-rule="evenodd" stroke="#000000" stroke-width="8" stroke-miterlimit="4" d="m359.904236,280.578674c32.923309,-11.505737 126.28775,-178.538239 103.373322,-251.220833c-76.694275,11.81813 -213.714111,133.078697 -193.065979,209.545174c20.648102,76.466522 90.527191,40.516205 89.692657,41.675659z"/>
     <path id="svg_41" fill="#ffffff" fill-rule="evenodd" stroke="#000000" stroke-width="8" stroke-miterlimit="4" d="m386.685059,366.340057c34.139862,7.127197 200.288086,-87.801941 218.152039,-161.887756c-71.798462,-29.439301 -251.733093,3.758179 -273.490448,79.916473c-21.757385,76.158295 56.651459,81.408508 55.338409,81.971283z"/>
     <path id="svg_42" fill="#ffffff" fill-rule="evenodd" stroke="#000000" stroke-width="8" stroke-miterlimit="4" d="m347.79303,435.268402c25.447235,23.848816 216.726807,29.222717 270.527771,-24.752167c-45.999084,-62.496185 -216.934692,-127.761536 -275.138855,-74.042389c-58.204163,53.719116 6.025208,98.997101 4.611084,98.794556z"/>
     <path id="svg_43" fill="#ffffff" fill-rule="evenodd" stroke="#000000" stroke-width="8" stroke-miterlimit="4" d="m289.832733,456.525024c3.57373,34.692291 144.463379,164.179321 220.47583,158.708496c6.252594,-77.347168 -80.004333,-238.71109 -159.173523,-236.320709c-79.169128,2.390381 -60.367462,78.692444 -61.302307,77.612213z"/>
     <path id="svg_44" fill="#ffffff" fill-rule="evenodd" stroke="#000000" stroke-width="8" stroke-miterlimit="4" d="m217.252625,459.959686c-17.416229,30.215942 20.978363,217.679657 85.801453,257.751923c50.357513,-59.04071 74.915833,-240.356537 9.337463,-284.774414c-65.578369,-44.417877 -95.013611,28.445526 -95.138916,27.022491z"/>
     <path id="svg_45" fill="#ffffff" fill-rule="evenodd" stroke="#000000" stroke-width="8" stroke-miterlimit="4" d="m135.147919,412.184082c-29.0541,19.292145 -78.199806,204.228516 -38.0187,268.984314c71.387581,-30.422058 174.154198,-181.807587 135.232918,-250.790222c-38.921219,-68.982635 -97.736008,-16.864197 -97.214218,-18.194092z"/>
     <path id="svg_46" fill="#ffffff" fill-rule="evenodd" stroke="#000000" stroke-width="8" stroke-miterlimit="4" d="m93.591728,346.846466c-34.801437,2.277344 -169.452995,138.239563 -166.820915,214.403168c77.060196,9.133057 241.528839,-71.045624 242.092804,-150.248871c0.564026,-79.203217 -76.386223,-63.260406 -75.271889,-64.154297z"/>
     <path id="svg_47" fill="#ffffff" fill-rule="evenodd" stroke="#000000" stroke-width="8" stroke-miterlimit="4" d="m132.697845,259.456573c-28.317528,-22.84375 -218.686081,-20.149323 -265.05571,36.258942c53.694321,60.736755 231.634315,118.970612 282.403305,62.632751c50.769012,-56.337799 -18.776062,-99.035065 -17.347595,-98.891693z"/>
     <path id="svg_48" fill="#ffffff" fill-rule="evenodd" stroke="#000000" stroke-width="8" stroke-miterlimit="4" d="m212.655304,197.512878c-12.149918,-34.294296 -175.706383,-131.745445 -244.757141,-107.996216c13.909821,79.865845 134.9562,222.699982 207.717178,201.315826c72.760971,-21.384125 35.898392,-94.190201 37.039963,-93.319611z"/>
    </g>
    <path id="svg_49" fill="#ffffff" fill-rule="evenodd" stroke="#000000" stroke-width="8" stroke-linecap="round" stroke-miterlimit="4" stroke-dashoffset="0" d="m356.352203,353.182648a120.714287,120.714287 0 1 1 -241.428581,0a120.714287,120.714287 0 1 1 241.428581,0z"/>
    <path id="svg_50" opacity="0.810241" fill="#ffffff" fill-rule="evenodd" stroke-width="1.3" stroke-linecap="round" stroke-miterlimit="4" stroke-dashoffset="0" d="m309.209381,355.325439a72.857147,72.857147 0 1 1 -145.714294,0a72.857147,72.857147 0 1 1 145.714294,0z"/>
   </g>
  </g>
 </g>
</svg>